PathFileType	4	(x/y/z)	S02_PSF_T02
DataRate	CameraRate	NumFrames	NumMarkers	Units	OrigDataRate	OrigDataStartFrame	OrigNumFrames
240	240	5	51	mm	240	308	410
Frame#	Time	Sternum			R.Acromium			L.Acromium			Top.Head			R.ASIS			L.ASIS			R.PSIS			L.PSIS			R.Great.Tro			L.Great.Tro			R.Iliac.Crest			L.Iliac.Crest			V.Sacral			R.Thigh.Upper.Post			R.Thigh.Lower.Ant			R.Thigh.Lower.Post			R.Thigh.Upper.Ant			R.Knee.Lat			R.Knee.Med			R.Shank.Upper.Post			R.Shank.Lower.Ant			R.Shank.Lower.Post			R.Shank.Upper.Ant			R.Ankle.Lat			R.Ankle.Med			R.Heel.Upper			R.Heel.Med			R.Heel.Lat			R.Toe.Lat			R.Toe.Med			R.Toe.Tip			L.Thigh.Upper.Post			L.Thigh.Lower.Ant			L.Thigh.Lower.Post			L.Thigh.Upper.Ant			L.Knee.Lat			L.Knee.Med			L.Shank.Upper.Post			L.Shank.Lower.Ant			L.Shank.Lower.Post			L.Shank.Upper.Ant			L.Ankle.Lat			L.Ankle.Med			L.Heel.Upper			L.Heel.Med			L.Heel.Lat			L.Toe.Lat			L.Toe.Med			L.Toe.Tip			Cervical.Spine			Back			
		X1	Y1	Z1	X2	Y2	Z2	X3	Y3	Z3	X4	Y4	Z4	X5	Y5	Z5	X6	Y6	Z6	X7	Y7	Z7	X8	Y8	Z8	X9	Y9	Z9	X10	Y10	Z10	X11	Y11	Z11	X12	Y12	Z12	X13	Y13	Z13	X14	Y14	Z14	X15	Y15	Z15	X16	Y16	Z16	X17	Y17	Z17	X18	Y18	Z18	X19	Y19	Z19	X20	Y20	Z20	X21	Y21	Z21	X22	Y22	Z22	X23	Y23	Z23	X24	Y24	Z24	X25	Y25	Z25	X26	Y26	Z26	X27	Y27	Z27	X28	Y28	Z28	X29	Y29	Z29	X30	Y30	Z30	X31	Y31	Z31	X32	Y32	Z32	X33	Y33	Z33	X34	Y34	Z34	X35	Y35	Z35	X36	Y36	Z36	X37	Y37	Z37	X38	Y38	Z38	X39	Y39	Z39	X40	Y40	Z40	X41	Y41	Z41	X42	Y42	Z42	X43	Y43	Z43	X44	Y44	Z44	X45	Y45	Z45	X46	Y46	Z46	X47	Y47	Z47	X48	Y48	Z48	X49	Y49	Z49	X50	Y50	Z50	X51	Y51	Z51	

308	1.2792	265.8	1089.2	316.56	162.57	1332	451.85	159.55	1322.9	158.05	190	1619.5	306.3	216.15	917.6	426.83	243.74	916.16	219.26	11.884	958.1	354.86	13.826	967.33	280.99	131.24	784.81	513.1	142.22	820.37	119.95	108.85	959.06	479.1	127.75	971.09	144.58	-12.051	915.68	306.49	147.47	596.6	516.53	213.39	519.22	506.56	141.46	506.57	505.58	215.4	608.81	513.18	157.61	431.79	504.51	186.02	406.25	362.54	-31.302	357.53	462.62	-51.752	249.62	449.2	-85.465	308.84	448.64	0.24924	292.64	470.91	-145.5	236.45	432.34	-113.61	235.21	352.65	-169.33	286.28	372.09	-186.18	265.95	336.43	-205.91	271.43	398.47	-166.47	116.17	442.63	-130.92	91.504	340.94	-101.99	54.23	403.42	157.05	593.11	151.47	248.97	534.96	169.35	175.11	508.05	179.62	222.25	622.35	141.55	248.67	452.77	185.21	232.81	457.76	321.52	167.21	279.91	190.8	235.69	194.31	214.47	164.48	207.98	210.14	231.67	268.41	194.69	186.67	98.186	229.78	196.39	96.325	311.67	127.11	66.18	262.58	134.14	40.776	297.2	133.89	38.01	235.17	301.35	35.093	212.22	318.37	45.713	323.09	380.02	61.43	278.3	85.302	1391.6	306.61	6.6096	1142.2	319.1
309	1.2833	270.79	1090.2	316.76	167.35	1333.2	451.84	164.87	1323.7	157.87	195.44	1620.5	306.37	221.14	918.76	426.72	248.63	916.7	219.1	16.944	959.4	354.55	18.841	968.57	280.67	136.59	786.34	513.11	146.45	821.05	119.87	113.72	960.21	478.9	132.85	971.95	144.33	-7.1531	917.02	306.23	155.49	598.36	517.18	222.35	521.73	507.59	150.57	508.24	506.38	223.28	611.35	514.02	167.73	433.76	505.45	196.37	408.37	363.44	-20.489	358.42	462.61	-40.185	250.37	449.47	-74.294	309.36	448.56	11.425	293.77	471.24	-133.77	236.77	432.12	-101.56	235.39	352.66	-158.21	285.69	371.31	-174.62	264.78	335.8	-194.62	270.53	397.73	-152.91	116.49	443.42	-116.72	91.412	342.06	-87.411	55.23	404.97	159.45	593.83	151.44	250.88	534.89	169.28	176.79	508.6	179.49	224.9	622.52	141.54	249.74	452.7	185.1	234.07	457.71	321.5	167.64	280.1	190.83	235.92	194.31	214.37	164.76	208.2	210.17	232.08	268.42	194.6	186.7	98.279	229.79	196.42	96.405	311.66	127.12	66.245	262.59	134.16	40.845	297.2	133.9	38.087	235.17	301.35	35.089	212.22	318.38	45.702	323.1	380.04	61.395	278.3	90.491	1392.7	306.28	11.685	1143.3	318.42
310	1.2875	275.76	1091.1	316.97	172.13	1334.3	451.82	170.18	1324.6	157.7	200.87	1621.6	306.45	226.15	919.92	426.59	253.51	917.25	218.95	22.025	960.75	354.26	23.862	969.84	280.38	141.93	787.89	513.12	150.61	821.71	119.8	118.64	961.42	478.71	137.91	972.79	144.08	-2.2573	918.4	306.02	163.5	600.15	517.81	231.28	524.28	508.53	159.67	509.96	507.14	231.15	613.92	514.81	177.81	435.77	506.32	206.69	410.56	364.31	-9.6927	359.18	462.57	-28.517	250.97	449.73	-63.081	309.68	448.45	22.652	294.8	471.54	-121.93	236.81	431.91	-89.431	235.36	352.66	-147.08	284.78	370.56	-163.02	263.27	335.2	-183.27	269.24	397.02	-139.03	116.56	444.23	-102.22	91.136	343.18	-72.445	56.125	406.49	161.82	594.56	151.43	252.75	534.82	169.22	178.44	509.15	179.39	227.5	622.69	141.55	250.79	452.65	184.99	235.38	457.69	321.51	168.08	280.3	190.84	236.16	194.32	214.28	165.04	208.43	210.19	232.49	268.45	194.52	186.74	98.373	229.81	196.45	96.49	311.65	127.12	66.316	262.61	134.18	40.921	297.2	133.91	38.169	235.17	301.36	35.084	212.22	318.4	45.691	323.11	380.06	61.357	278.3	95.669	1393.8	305.96	16.738	1144.5	317.75
311	1.2917	280.71	1092	317.17	176.91	1335.5	451.8	175.47	1325.5	157.55	206.29	1622.7	306.55	231.18	921.1	426.45	258.35	917.8	218.8	27.126	962.13	354	28.886	971.12	280.12	147.25	789.45	513.13	154.7	822.35	119.74	123.6	962.68	478.52	142.93	973.62	143.85	2.6378	919.8	305.86	171.51	601.96	518.41	240.18	526.86	509.4	168.75	511.73	507.87	239	616.51	515.54	187.83	437.8	507.12	217	412.82	365.13	1.0871	359.78	462.5	-16.749	251.4	449.97	-51.827	309.79	448.33	33.931	295.72	471.8	-109.97	236.59	431.71	-77.216	235.12	352.66	-135.92	283.55	369.83	-151.37	261.43	334.64	-171.86	267.59	396.36	-124.87	116.37	445.03	-87.458	90.681	344.29	-57.132	56.908	407.98	164.16	595.29	151.45	254.58	534.76	169.17	180.08	509.71	179.32	230.08	622.87	141.57	251.82	452.61	184.89	236.73	457.7	321.53	168.53	280.52	190.85	236.4	194.35	214.2	165.32	208.68	210.21	232.91	268.49	194.46	186.78	98.467	229.83	196.49	96.578	311.64	127.12	66.395	262.62	134.19	41.003	297.19	133.93	38.256	235.18	301.37	35.078	212.22	318.42	45.682	323.11	380.08	61.316	278.3	100.83	1394.9	305.65	21.77	1145.6	317.1
312	1.2958	285.64	1092.9	317.37	181.69	1336.6	451.77	180.75	1326.4	157.41	211.7	1623.7	306.66	236.22	922.3	426.27	263.18	918.35	218.64	32.244	963.54	353.76	33.909	972.41	279.88	152.57	791.01	513.13	158.71	822.98	119.69	128.61	963.98	478.33	147.89	974.42	143.64	7.5332	921.24	305.74	179.51	603.8	518.99	249.06	529.48	510.2	177.81	513.53	508.57	246.83	619.13	516.21	197.8	439.85	507.85	227.3	415.14	365.91	11.852	360.24	462.4	-4.885	251.67	450.2	-40.532	309.69	448.19	45.258	296.52	472.04	-97.903	236.1	431.53	-64.919	234.66	352.66	-124.73	282.01	369.13	-139.66	259.28	334.13	-160.36	265.58	395.76	-110.44	115.93	445.85	-72.445	90.053	345.4	-41.509	57.574	409.43	166.48	596.01	151.49	256.38	534.71	169.13	181.69	510.28	179.28	232.62	623.03	141.61	252.83	452.59	184.8	238.11	457.72	321.57	168.97	280.74	190.85	236.64	194.4	214.14	165.61	208.93	210.22	233.33	268.55	194.4	186.84	98.563	229.86	196.53	96.67	311.62	127.13	66.48	262.63	134.21	41.091	297.19	133.94	38.348	235.18	301.37	35.071	212.23	318.44	45.674	323.1	380.11	61.272	278.3	105.99	1396	305.35	26.782	1146.7	316.46
